<?xml version="1.0" encoding="utf-8"?>
<!-- Generator: Adobe Illustrator 21.0.0, SVG Export Plug-In . SVG Version: 6.00 Build 0)  -->
<svg version="1.1" id="Layer_1" xmlns="http://www.w3.org/2000/svg" xmlns:xlink="http://www.w3.org/1999/xlink" x="0px" y="0px"
	 viewBox="0 0 228.4 33" style="enable-background:new 0 0 228.4 33;" xml:space="preserve">
<style type="text/css">
	.st0{fill:#F47422;}
	.st1{fill:#EEB81D;}
</style>
<title>Artboard 1 copy</title>
<g id="Layer_1_1_">
	<path class="st0" d="M51.2,31.2L36.9,0.6C36.7,0.2,36.4,0,36,0h-0.5c-0.4,0-0.7,0.2-0.9,0.6L23,25.6H7.4V1.5c0-0.5-0.4-1-1-1H1
		c-0.5,0-1,0.4-1,1l0,0v30.1c0,0.5,0.4,1,1,1l0,0h25.3c0.1,0,0.1,0,0.2,0c0.7-0.1,1.3-0.5,1.5-1.2l1.7-3.7l2.7-6.2l3.4-7.4l3.4,7.4
		l2.8,6.2l1.6,3.6c0.4,0.9,0.8,1.2,1.7,1.2h5.1c0.3,0,0.6-0.1,0.8-0.4C51.4,31.8,51.4,31.5,51.2,31.2z"/>
	<path class="st1" d="M68,0c4.6,0,8,1.4,11.1,4.3c0.4,0.3,0.4,0.8,0.1,1.2c0,0-0.1,0.1-0.1,0.1l-3.6,3.7c-0.3,0.3-0.8,0.3-1.1,0
		c0,0,0,0,0,0c-1.7-1.5-3.9-2.3-6.2-2.3c-5.2,0-9,4.3-9,9.4c0,5.1,3.8,9.3,9,9.3c2.2,0,4.4-0.8,6.1-2.2c0.4-0.3,0.9-0.3,1.2,0
		l3.6,3.8c0.3,0.4,0.3,0.9,0,1.2c-3,2.9-7,4.5-11.1,4.4c-9.1,0-16.5-7.4-16.5-16.5S58.9,0,68,0L68,0z"/>
	<path class="st1" d="M97.7,0c9.1,0,16.5,7.3,16.5,16.5S106.9,33,97.8,33c-9.1,0-16.5-7.3-16.5-16.4C81.2,7.5,88.6,0,97.7,0
		C97.7,0,97.7,0,97.7,0z M97.7,25.7c5.1,0,9.2-4.1,9.2-9.2s-4.1-9.2-9.2-9.2c-5,0-9.1,4.2-9.1,9.2C88.6,21.6,92.7,25.6,97.7,25.7z"
		/>
	<path class="st1" d="M118.4,1.3c0-0.5,0.4-0.9,0.9-0.9h5.6c0.5,0,0.9,0.4,0.9,0.9v18.6c0,3.2,2.4,5.8,5.6,5.8
		c3.1,0,5.7-2.5,5.7-5.6c0-0.1,0-0.1,0-0.2V1.3c0-0.5,0.4-0.9,0.9-0.9h5.6c0.5,0,0.9,0.4,0.9,0.9v18.9c0,7-5.9,12.7-13.1,12.7
		c-7.2,0-13-5.8-13-12.7L118.4,1.3z"/>
	<path class="st1" d="M150,0.8c0-0.5,0.4-0.8,0.9-0.8h1.1l18.3,17.6h0V1.3c0-0.5,0.4-0.9,0.9-0.9h5.5c0.5,0,0.9,0.4,0.9,0.9v30.8
		c0,0.5-0.4,0.8-0.9,0.8H176c-0.2,0-0.4-0.1-0.6-0.2l-18.1-18.2h0v17.1c0,0.5-0.4,0.9-0.9,0.9h-5.5c-0.5,0-0.9-0.4-0.9-0.9L150,0.8z
		"/>
	<path class="st1" d="M189.6,7.2h-6.6c-0.5,0-0.9-0.4-0.9-0.9v-5c0-0.5,0.4-0.9,0.9-0.9h20.3c0.5,0,0.9,0.4,0.9,0.9v5
		c0,0.5-0.4,0.9-0.9,0.9h-6.6v24.5c0,0.5-0.4,0.9-0.9,0.9h-5.5c-0.5,0-0.9-0.4-0.9-0.9V7.2z"/>
	<path class="st1" d="M219.1,13.1c-3.6-1.5-5-2.8-5-4.4c0-1.2,1.2-2.3,2.9-2.3c2.8,0,6.1,2.5,6.6,2.8c0.4,0.3,1.2-0.1,1.6-0.6
		l2.3-3.5c0.2-0.3,0.3-1.1-0.3-1.5c-1.4-1-5-3.4-9.8-3.4c-7.1,0-10.6,4.6-10.6,9.1c0,5.5,4.9,8.6,8.9,10.1c3.1,1.2,4.7,2.7,4.7,4.6
		c0,1.6-1.3,2.8-3.2,2.8c-1.2,0-2.4-0.3-3.5-0.8c-1.3-0.6-2.4-1.4-3.5-2.3c-0.3-0.3-1.2-0.4-1.6,0.1l-2.5,3.6
		c-0.4,0.6-0.3,0.8,0.1,1.3c0.4,0.5,0.9,0.9,1.4,1.3c1.2,1,3.9,2.7,8.1,3.1l0.5,0.1l0,0c0.4,0,0.8,0,1.3,0c6.7,0,10.8-4.8,10.8-9.5
		C228.4,17.3,222.7,14.5,219.1,13.1z"/>
</g>
</svg>
